<svg xmlns="http://www.w3.org/2000/svg" xmlns:xlink="http://www.w3.org/1999/xlink" width="42" zoomAndPan="magnify" viewBox="0 0 31.5 31.499999" height="42" preserveAspectRatio="xMidYMid meet" version="1.0"><defs><clipPath id="f3521c0891"><path d="M 0.0820312 3.148438 L 31.007812 3.148438 L 31.007812 29.386719 L 0.0820312 29.386719 Z M 0.0820312 3.148438 " clip-rule="nonzero"/></clipPath></defs><g clip-path="url(#f3521c0891)"><path fill="#66bfbf" d="M 11.109375 27.234375 L 20.464844 27.234375 C 20.585938 27.234375 20.671875 27.316406 20.671875 27.441406 L 20.671875 28.492188 C 20.671875 28.613281 20.585938 28.703125 20.464844 28.703125 L 11.109375 28.703125 C 10.988281 28.703125 10.914062 28.617188 10.914062 28.492188 L 10.914062 27.441406 C 10.914062 27.316406 10.988281 27.234375 11.109375 27.234375 Z M 12.851562 24.308594 L 18.710938 24.308594 L 19.367188 26.546875 L 12.207031 26.546875 Z M 20.96875 8.589844 C 20.710938 8.628906 20.574219 9.007812 20.773438 9.1875 L 25.386719 13.765625 L 20.773438 18.328125 C 20.609375 18.449219 20.597656 18.707031 20.734375 18.84375 C 20.871094 18.976562 21.128906 18.964844 21.253906 18.816406 L 26.113281 13.996094 C 26.25 13.875 26.25 13.644531 26.113281 13.519531 L 21.253906 8.703125 C 21.179688 8.628906 21.082031 8.589844 20.96875 8.589844 Z M 10.445312 8.589844 C 10.371094 8.601562 10.296875 8.652344 10.246094 8.703125 L 5.386719 13.519531 C 5.25 13.644531 5.25 13.875 5.386719 13.996094 L 10.246094 18.816406 C 10.371094 18.964844 10.628906 18.976562 10.765625 18.84375 C 10.902344 18.707031 10.890625 18.449219 10.726562 18.328125 L 6.113281 13.765625 L 10.726562 9.1875 C 10.949219 8.992188 10.738281 8.566406 10.445312 8.589844 Z M 19.121094 7.464844 C 18.992188 7.476562 18.898438 7.539062 18.835938 7.636719 L 11.9375 19.464844 C 11.851562 19.625 11.914062 19.855469 12.074219 19.941406 C 12.234375 20.042969 12.457031 19.980469 12.554688 19.820312 L 19.453125 7.980469 C 19.574219 7.757812 19.367188 7.441406 19.121094 7.464844 Z M 2.796875 5.972656 L 28.71875 5.972656 L 28.71875 21.484375 L 2.796875 21.484375 Z M 2.425781 5.289062 C 2.238281 5.300781 2.09375 5.460938 2.09375 5.628906 L 2.09375 21.828125 C 2.09375 22.007812 2.265625 22.167969 2.4375 22.167969 L 29.074219 22.167969 C 29.25 22.167969 29.421875 22.007812 29.421875 21.828125 L 29.421875 5.628906 C 29.421875 5.460938 29.273438 5.300781 29.097656 5.285156 C 29.089844 5.285156 29.074219 5.285156 29.074219 5.285156 L 2.425781 5.285156 Z M 2.425781 3.84375 L 29.074219 3.84375 C 30 3.84375 30.730469 4.554688 30.730469 5.472656 L 30.730469 22 C 30.730469 22.902344 30 23.625 29.074219 23.625 L 2.425781 23.625 C 1.5 23.625 0.769531 22.902344 0.769531 22 L 0.769531 5.472656 C 0.769531 4.554688 1.5 3.84375 2.425781 3.84375 Z M 2.425781 3.148438 C 1.128906 3.148438 0.0820312 4.1875 0.0820312 5.472656 L 0.0820312 22 C 0.0820312 23.269531 1.128906 24.3125 2.425781 24.3125 L 12.136719 24.3125 L 11.492188 26.550781 L 11.109375 26.550781 C 10.617188 26.550781 10.210938 26.953125 10.210938 27.441406 L 10.210938 28.492188 C 10.210938 28.984375 10.617188 29.386719 11.109375 29.386719 L 20.464844 29.386719 C 20.957031 29.386719 21.363281 28.984375 21.363281 28.492188 L 21.363281 27.441406 C 21.363281 26.953125 20.957031 26.550781 20.464844 26.550781 L 20.082031 26.550781 L 19.4375 24.3125 L 29.074219 24.3125 C 30.371094 24.3125 31.417969 23.269531 31.417969 22 L 31.417969 5.472656 C 31.417969 4.1875 30.371094 3.148438 29.074219 3.148438 L 2.425781 3.148438 " fill-opacity="1" fill-rule="nonzero"/></g></svg>