<svg xmlns="http://www.w3.org/2000/svg" xmlns:xlink="http://www.w3.org/1999/xlink" width="120" zoomAndPan="magnify" viewBox="0 0 90 31.5" height="42" preserveAspectRatio="xMidYMid meet" version="1.0"><defs><g/><clipPath id="4b3db67039"><path d="M 0.792969 0 L 37.527344 0 L 37.527344 30.992188 L 0.792969 30.992188 Z M 0.792969 0 " clip-rule="nonzero"/></clipPath><clipPath id="aca7f1af85"><path d="M 86 15 L 89.296875 15 L 89.296875 23 L 86 23 Z M 86 15 " clip-rule="nonzero"/></clipPath></defs><g clip-path="url(#4b3db67039)"><path fill="#b6cdbd" d="M 13.71875 28.449219 L 24.683594 28.449219 C 24.828125 28.449219 24.929688 28.550781 24.929688 28.695312 L 24.929688 29.9375 C 24.929688 30.078125 24.828125 30.183594 24.683594 30.183594 L 13.71875 30.183594 C 13.578125 30.183594 13.492188 30.082031 13.492188 29.9375 L 13.492188 28.695312 C 13.492188 28.550781 13.578125 28.449219 13.71875 28.449219 Z M 15.761719 24.992188 L 22.628906 24.992188 L 23.398438 27.636719 L 15.007812 27.636719 Z M 25.277344 6.425781 C 24.976562 6.46875 24.816406 6.917969 25.046875 7.132812 L 30.457031 12.539062 L 25.046875 17.925781 C 24.855469 18.074219 24.84375 18.378906 25 18.535156 C 25.164062 18.695312 25.464844 18.679688 25.609375 18.507812 L 31.308594 12.8125 C 31.46875 12.667969 31.46875 12.394531 31.308594 12.25 L 25.609375 6.558594 C 25.523438 6.46875 25.410156 6.425781 25.277344 6.425781 Z M 12.941406 6.425781 C 12.855469 6.441406 12.769531 6.5 12.710938 6.558594 L 7.011719 12.25 C 6.851562 12.394531 6.851562 12.667969 7.011719 12.8125 L 12.710938 18.507812 C 12.855469 18.679688 13.160156 18.695312 13.316406 18.535156 C 13.476562 18.378906 13.464844 18.074219 13.273438 17.925781 L 7.863281 12.539062 L 13.273438 7.132812 C 13.535156 6.902344 13.285156 6.398438 12.941406 6.425781 Z M 23.109375 5.09375 C 22.960938 5.113281 22.847656 5.183594 22.777344 5.300781 L 14.691406 19.273438 C 14.589844 19.460938 14.664062 19.734375 14.851562 19.835938 C 15.039062 19.953125 15.300781 19.882812 15.417969 19.691406 L 23.5 5.703125 C 23.644531 5.445312 23.398438 5.070312 23.109375 5.09375 Z M 3.976562 3.335938 L 34.359375 3.335938 L 34.359375 21.65625 L 3.976562 21.65625 Z M 3.542969 2.527344 C 3.324219 2.539062 3.152344 2.730469 3.152344 2.929688 L 3.152344 22.0625 C 3.152344 22.277344 3.351562 22.464844 3.554688 22.464844 L 34.777344 22.464844 C 34.984375 22.464844 35.183594 22.277344 35.183594 22.0625 L 35.183594 2.929688 C 35.183594 2.730469 35.007812 2.539062 34.808594 2.523438 C 34.792969 2.523438 34.777344 2.523438 34.777344 2.523438 L 3.542969 2.523438 Z M 3.542969 0.820312 L 34.777344 0.820312 C 35.863281 0.820312 36.71875 1.65625 36.71875 2.742188 L 36.71875 22.265625 C 36.71875 23.332031 35.863281 24.1875 34.777344 24.1875 L 3.542969 24.1875 C 2.457031 24.1875 1.601562 23.332031 1.601562 22.265625 L 1.601562 2.742188 C 1.601562 1.65625 2.457031 0.820312 3.542969 0.820312 Z M 3.542969 -0.00390625 C 2.023438 -0.00390625 0.792969 1.222656 0.792969 2.742188 L 0.792969 22.265625 C 0.792969 23.765625 2.023438 24.996094 3.542969 24.996094 L 14.925781 24.996094 L 14.171875 27.640625 L 13.71875 27.640625 C 13.144531 27.640625 12.667969 28.117188 12.667969 28.695312 L 12.667969 29.9375 C 12.667969 30.515625 13.144531 30.992188 13.71875 30.992188 L 24.683594 30.992188 C 25.261719 30.992188 25.742188 30.515625 25.742188 29.9375 L 25.742188 28.695312 C 25.742188 28.117188 25.261719 27.640625 24.683594 27.640625 L 24.238281 27.640625 L 23.484375 24.996094 L 34.777344 24.996094 C 36.296875 24.996094 37.527344 23.765625 37.527344 22.265625 L 37.527344 2.742188 C 37.527344 1.222656 36.296875 -0.00390625 34.777344 -0.00390625 L 3.542969 -0.00390625 " fill-opacity="1" fill-rule="nonzero"/></g><g fill="#b6cdbd" fill-opacity="1"><g transform="translate(39.473332, 13.461326)"><g><path d="M 2.265625 -6.375 C 2.523438 -6.375 2.726562 -6.34375 2.875 -6.28125 C 3.03125 -6.226562 3.1875 -6.148438 3.34375 -6.046875 C 3.476562 -5.960938 3.582031 -5.921875 3.65625 -5.921875 C 3.707031 -5.921875 3.742188 -5.953125 3.765625 -6.015625 C 3.796875 -6.078125 3.820312 -6.175781 3.84375 -6.3125 L 4.046875 -6.3125 C 4.015625 -5.96875 4 -5.363281 4 -4.5 L 3.796875 -4.5 C 3.765625 -4.976562 3.628906 -5.378906 3.390625 -5.703125 C 3.148438 -6.035156 2.800781 -6.203125 2.34375 -6.203125 C 2.03125 -6.203125 1.769531 -6.101562 1.5625 -5.90625 C 1.363281 -5.71875 1.265625 -5.472656 1.265625 -5.171875 C 1.265625 -4.953125 1.316406 -4.757812 1.421875 -4.59375 C 1.523438 -4.425781 1.65625 -4.28125 1.8125 -4.15625 C 1.976562 -4.039062 2.207031 -3.894531 2.5 -3.71875 L 2.75 -3.546875 C 3.125 -3.316406 3.414062 -3.113281 3.625 -2.9375 C 3.84375 -2.769531 4.015625 -2.570312 4.140625 -2.34375 C 4.273438 -2.125 4.34375 -1.863281 4.34375 -1.5625 C 4.34375 -1.019531 4.164062 -0.601562 3.8125 -0.3125 C 3.457031 -0.0195312 3.007812 0.125 2.46875 0.125 C 2.1875 0.125 1.953125 0.09375 1.765625 0.03125 C 1.585938 -0.0195312 1.421875 -0.0976562 1.265625 -0.203125 C 1.128906 -0.285156 1.023438 -0.328125 0.953125 -0.328125 C 0.898438 -0.328125 0.859375 -0.296875 0.828125 -0.234375 C 0.796875 -0.171875 0.773438 -0.0703125 0.765625 0.0625 L 0.5625 0.0625 C 0.582031 -0.257812 0.59375 -0.96875 0.59375 -2.0625 L 0.796875 -2.0625 C 0.835938 -1.46875 0.984375 -0.984375 1.234375 -0.609375 C 1.492188 -0.234375 1.882812 -0.046875 2.40625 -0.046875 C 2.726562 -0.046875 3 -0.144531 3.21875 -0.34375 C 3.445312 -0.539062 3.5625 -0.835938 3.5625 -1.234375 C 3.5625 -1.566406 3.445312 -1.847656 3.21875 -2.078125 C 3 -2.304688 2.648438 -2.566406 2.171875 -2.859375 C 1.828125 -3.066406 1.546875 -3.253906 1.328125 -3.421875 C 1.117188 -3.585938 0.945312 -3.785156 0.8125 -4.015625 C 0.675781 -4.253906 0.609375 -4.53125 0.609375 -4.84375 C 0.609375 -5.332031 0.765625 -5.707031 1.078125 -5.96875 C 1.398438 -6.238281 1.796875 -6.375 2.265625 -6.375 Z M 2.265625 -6.375 "/></g></g></g><g fill="#b6cdbd" fill-opacity="1"><g transform="translate(44.257425, 13.461326)"><g><path d="M 1.265625 -6.78125 C 1.421875 -6.78125 1.550781 -6.722656 1.65625 -6.609375 C 1.769531 -6.492188 1.828125 -6.359375 1.828125 -6.203125 C 1.828125 -6.054688 1.769531 -5.925781 1.65625 -5.8125 C 1.550781 -5.695312 1.421875 -5.640625 1.265625 -5.640625 C 1.109375 -5.640625 0.972656 -5.695312 0.859375 -5.8125 C 0.753906 -5.925781 0.703125 -6.054688 0.703125 -6.203125 C 0.703125 -6.359375 0.753906 -6.492188 0.859375 -6.609375 C 0.972656 -6.722656 1.109375 -6.78125 1.265625 -6.78125 Z M 1.734375 -0.828125 C 1.734375 -0.578125 1.78125 -0.40625 1.875 -0.3125 C 1.976562 -0.226562 2.15625 -0.1875 2.40625 -0.1875 L 2.40625 0 C 1.851562 -0.0195312 1.492188 -0.03125 1.328125 -0.03125 C 1.160156 -0.03125 0.800781 -0.0195312 0.25 0 L 0.25 -0.1875 C 0.5 -0.1875 0.675781 -0.226562 0.78125 -0.3125 C 0.882812 -0.40625 0.9375 -0.578125 0.9375 -0.828125 L 0.9375 -3.59375 C 0.9375 -3.863281 0.882812 -4.0625 0.78125 -4.1875 C 0.675781 -4.3125 0.5 -4.375 0.25 -4.375 L 0.25 -4.5625 C 0.445312 -4.539062 0.632812 -4.53125 0.8125 -4.53125 C 1.175781 -4.53125 1.484375 -4.570312 1.734375 -4.65625 Z M 1.734375 -0.828125 "/></g></g></g><g fill="#b6cdbd" fill-opacity="1"><g transform="translate(46.853238, 13.461326)"><g><path d="M 1.671875 -0.828125 C 1.671875 -0.578125 1.71875 -0.40625 1.8125 -0.3125 C 1.914062 -0.226562 2.09375 -0.1875 2.34375 -0.1875 L 2.34375 0 C 1.800781 -0.0195312 1.441406 -0.03125 1.265625 -0.03125 C 1.097656 -0.03125 0.738281 -0.0195312 0.1875 0 L 0.1875 -0.1875 C 0.4375 -0.1875 0.613281 -0.226562 0.71875 -0.3125 C 0.820312 -0.40625 0.875 -0.578125 0.875 -0.828125 L 0.875 -5.875 C 0.875 -6.15625 0.820312 -6.351562 0.71875 -6.46875 C 0.613281 -6.59375 0.4375 -6.65625 0.1875 -6.65625 L 0.1875 -6.84375 C 0.375 -6.832031 0.5625 -6.828125 0.75 -6.828125 C 1.113281 -6.828125 1.421875 -6.867188 1.671875 -6.953125 Z M 1.671875 -0.828125 "/></g></g></g><g fill="#b6cdbd" fill-opacity="1"><g transform="translate(49.387036, 13.461326)"><g><path d="M 3.625 -4.53125 C 3.882812 -4.53125 4.113281 -4.539062 4.3125 -4.5625 L 4.3125 -4.390625 C 4.1875 -4.378906 4.078125 -4.320312 3.984375 -4.21875 C 3.898438 -4.125 3.816406 -3.972656 3.734375 -3.765625 L 2.28125 0.046875 L 2.125 0.046875 L 0.5 -3.875 C 0.40625 -4.082031 0.316406 -4.21875 0.234375 -4.28125 C 0.148438 -4.34375 0.0664062 -4.375 -0.015625 -4.375 L -0.015625 -4.5625 C 0.285156 -4.539062 0.546875 -4.53125 0.765625 -4.53125 C 1.210938 -4.53125 1.59375 -4.539062 1.90625 -4.5625 L 1.90625 -4.375 C 1.6875 -4.375 1.523438 -4.359375 1.421875 -4.328125 C 1.328125 -4.296875 1.28125 -4.210938 1.28125 -4.078125 C 1.28125 -3.992188 1.3125 -3.863281 1.375 -3.6875 L 2.46875 -1 L 3.453125 -3.546875 C 3.515625 -3.722656 3.546875 -3.863281 3.546875 -3.96875 C 3.546875 -4.101562 3.492188 -4.203125 3.390625 -4.265625 C 3.285156 -4.328125 3.117188 -4.367188 2.890625 -4.390625 L 2.890625 -4.5625 C 3.191406 -4.539062 3.4375 -4.53125 3.625 -4.53125 Z M 3.625 -4.53125 "/></g></g></g><g fill="#b6cdbd" fill-opacity="1"><g transform="translate(53.719301, 13.461326)"><g><path d="M 1.265625 -6.78125 C 1.421875 -6.78125 1.550781 -6.722656 1.65625 -6.609375 C 1.769531 -6.492188 1.828125 -6.359375 1.828125 -6.203125 C 1.828125 -6.054688 1.769531 -5.925781 1.65625 -5.8125 C 1.550781 -5.695312 1.421875 -5.640625 1.265625 -5.640625 C 1.109375 -5.640625 0.972656 -5.695312 0.859375 -5.8125 C 0.753906 -5.925781 0.703125 -6.054688 0.703125 -6.203125 C 0.703125 -6.359375 0.753906 -6.492188 0.859375 -6.609375 C 0.972656 -6.722656 1.109375 -6.78125 1.265625 -6.78125 Z M 1.734375 -0.828125 C 1.734375 -0.578125 1.78125 -0.40625 1.875 -0.3125 C 1.976562 -0.226562 2.15625 -0.1875 2.40625 -0.1875 L 2.40625 0 C 1.851562 -0.0195312 1.492188 -0.03125 1.328125 -0.03125 C 1.160156 -0.03125 0.800781 -0.0195312 0.25 0 L 0.25 -0.1875 C 0.5 -0.1875 0.675781 -0.226562 0.78125 -0.3125 C 0.882812 -0.40625 0.9375 -0.578125 0.9375 -0.828125 L 0.9375 -3.59375 C 0.9375 -3.863281 0.882812 -4.0625 0.78125 -4.1875 C 0.675781 -4.3125 0.5 -4.375 0.25 -4.375 L 0.25 -4.5625 C 0.445312 -4.539062 0.632812 -4.53125 0.8125 -4.53125 C 1.175781 -4.53125 1.484375 -4.570312 1.734375 -4.65625 Z M 1.734375 -0.828125 "/></g></g></g><g fill="#b6cdbd" fill-opacity="1"><g transform="translate(56.315113, 13.461326)"><g><path d="M 1.4375 0.0625 C 1.070312 0.0625 0.796875 -0.03125 0.609375 -0.21875 C 0.429688 -0.40625 0.34375 -0.664062 0.34375 -1 C 0.34375 -1.257812 0.414062 -1.472656 0.5625 -1.640625 C 0.707031 -1.816406 0.878906 -1.953125 1.078125 -2.046875 C 1.273438 -2.148438 1.535156 -2.257812 1.859375 -2.375 C 2.191406 -2.488281 2.4375 -2.59375 2.59375 -2.6875 C 2.75 -2.78125 2.828125 -2.90625 2.828125 -3.0625 L 2.828125 -3.609375 C 2.828125 -3.953125 2.753906 -4.1875 2.609375 -4.3125 C 2.472656 -4.445312 2.273438 -4.515625 2.015625 -4.515625 C 1.597656 -4.515625 1.304688 -4.40625 1.140625 -4.1875 C 1.253906 -4.15625 1.347656 -4.09375 1.421875 -4 C 1.503906 -3.90625 1.546875 -3.789062 1.546875 -3.65625 C 1.546875 -3.5 1.5 -3.378906 1.40625 -3.296875 C 1.3125 -3.210938 1.191406 -3.171875 1.046875 -3.171875 C 0.878906 -3.171875 0.753906 -3.222656 0.671875 -3.328125 C 0.585938 -3.429688 0.546875 -3.554688 0.546875 -3.703125 C 0.546875 -3.847656 0.578125 -3.96875 0.640625 -4.0625 C 0.710938 -4.15625 0.816406 -4.25 0.953125 -4.34375 C 1.097656 -4.4375 1.28125 -4.515625 1.5 -4.578125 C 1.71875 -4.648438 1.957031 -4.6875 2.21875 -4.6875 C 2.675781 -4.6875 3.023438 -4.578125 3.265625 -4.359375 C 3.410156 -4.222656 3.503906 -4.054688 3.546875 -3.859375 C 3.597656 -3.671875 3.625 -3.421875 3.625 -3.109375 L 3.625 -0.640625 C 3.625 -0.492188 3.644531 -0.390625 3.6875 -0.328125 C 3.726562 -0.265625 3.800781 -0.234375 3.90625 -0.234375 C 3.976562 -0.234375 4.046875 -0.25 4.109375 -0.28125 C 4.171875 -0.3125 4.238281 -0.359375 4.3125 -0.421875 L 4.40625 -0.265625 C 4.25 -0.148438 4.113281 -0.0664062 4 -0.015625 C 3.894531 0.0351562 3.757812 0.0625 3.59375 0.0625 C 3.3125 0.0625 3.113281 -0.00390625 3 -0.140625 C 2.882812 -0.285156 2.828125 -0.476562 2.828125 -0.71875 C 2.648438 -0.425781 2.445312 -0.222656 2.21875 -0.109375 C 1.988281 0.00390625 1.726562 0.0625 1.4375 0.0625 Z M 1.828125 -0.296875 C 2.222656 -0.296875 2.554688 -0.519531 2.828125 -0.96875 L 2.828125 -2.703125 C 2.773438 -2.617188 2.703125 -2.550781 2.609375 -2.5 C 2.515625 -2.445312 2.367188 -2.375 2.171875 -2.28125 C 1.953125 -2.1875 1.769531 -2.097656 1.625 -2.015625 C 1.488281 -1.929688 1.367188 -1.8125 1.265625 -1.65625 C 1.171875 -1.507812 1.125 -1.320312 1.125 -1.09375 C 1.125 -0.832031 1.1875 -0.632812 1.3125 -0.5 C 1.445312 -0.363281 1.617188 -0.296875 1.828125 -0.296875 Z M 1.828125 -0.296875 "/></g></g></g><g fill="#b6cdbd" fill-opacity="1"><g transform="translate(39.257555, 22.812891)"><g><path d="M 3.65625 -7.109375 C 4.050781 -7.109375 4.382812 -7.050781 4.65625 -6.9375 C 4.925781 -6.820312 5.195312 -6.664062 5.46875 -6.46875 C 5.539062 -6.40625 5.601562 -6.375 5.65625 -6.375 C 5.78125 -6.375 5.863281 -6.570312 5.90625 -6.96875 L 6.125 -6.96875 C 6.101562 -6.539062 6.09375 -5.785156 6.09375 -4.703125 L 5.859375 -4.703125 C 5.796875 -5.128906 5.734375 -5.4375 5.671875 -5.625 C 5.609375 -5.8125 5.507812 -5.988281 5.375 -6.15625 C 5.175781 -6.414062 4.921875 -6.609375 4.609375 -6.734375 C 4.304688 -6.867188 3.976562 -6.9375 3.625 -6.9375 C 3.207031 -6.9375 2.835938 -6.789062 2.515625 -6.5 C 2.191406 -6.21875 1.941406 -5.816406 1.765625 -5.296875 C 1.585938 -4.773438 1.5 -4.164062 1.5 -3.46875 C 1.5 -2.75 1.59375 -2.132812 1.78125 -1.625 C 1.976562 -1.113281 2.242188 -0.722656 2.578125 -0.453125 C 2.921875 -0.191406 3.304688 -0.0625 3.734375 -0.0625 C 4.054688 -0.0625 4.367188 -0.125 4.671875 -0.25 C 4.984375 -0.375 5.234375 -0.5625 5.421875 -0.8125 C 5.546875 -0.988281 5.632812 -1.179688 5.6875 -1.390625 C 5.75 -1.609375 5.804688 -1.929688 5.859375 -2.359375 L 6.09375 -2.359375 C 6.09375 -1.234375 6.101562 -0.445312 6.125 0 L 5.90625 0 C 5.882812 -0.207031 5.851562 -0.351562 5.8125 -0.4375 C 5.78125 -0.53125 5.734375 -0.578125 5.671875 -0.578125 C 5.617188 -0.578125 5.550781 -0.550781 5.46875 -0.5 C 5.164062 -0.289062 4.878906 -0.128906 4.609375 -0.015625 C 4.347656 0.0859375 4.023438 0.140625 3.640625 0.140625 C 3.015625 0.140625 2.46875 0 2 -0.28125 C 1.53125 -0.5625 1.164062 -0.96875 0.90625 -1.5 C 0.644531 -2.039062 0.515625 -2.679688 0.515625 -3.421875 C 0.515625 -4.148438 0.644531 -4.789062 0.90625 -5.34375 C 1.175781 -5.90625 1.550781 -6.335938 2.03125 -6.640625 C 2.507812 -6.953125 3.050781 -7.109375 3.65625 -7.109375 Z M 3.65625 -7.109375 "/></g></g></g><g fill="#b6cdbd" fill-opacity="1"><g transform="translate(46.027389, 22.812891)"><g><path d="M 3.34375 -5.203125 C 3.601562 -5.203125 3.816406 -5.125 3.984375 -4.96875 C 4.160156 -4.820312 4.25 -4.644531 4.25 -4.4375 C 4.25 -4.257812 4.195312 -4.109375 4.09375 -3.984375 C 3.988281 -3.867188 3.851562 -3.8125 3.6875 -3.8125 C 3.539062 -3.8125 3.414062 -3.851562 3.3125 -3.9375 C 3.207031 -4.03125 3.15625 -4.160156 3.15625 -4.328125 C 3.15625 -4.535156 3.269531 -4.710938 3.5 -4.859375 C 3.445312 -4.921875 3.375 -4.953125 3.28125 -4.953125 C 3.03125 -4.953125 2.800781 -4.847656 2.59375 -4.640625 C 2.382812 -4.441406 2.21875 -4.195312 2.09375 -3.90625 C 1.976562 -3.625 1.921875 -3.351562 1.921875 -3.09375 L 1.921875 -1.015625 C 1.921875 -0.710938 2.003906 -0.5 2.171875 -0.375 C 2.347656 -0.257812 2.613281 -0.203125 2.96875 -0.203125 L 2.96875 0 L 2.734375 -0.015625 C 2.054688 -0.0351562 1.628906 -0.046875 1.453125 -0.046875 C 1.273438 -0.046875 0.882812 -0.03125 0.28125 0 L 0.28125 -0.203125 C 0.5625 -0.203125 0.753906 -0.253906 0.859375 -0.359375 C 0.972656 -0.460938 1.03125 -0.648438 1.03125 -0.921875 L 1.03125 -4 C 1.03125 -4.300781 0.972656 -4.519531 0.859375 -4.65625 C 0.753906 -4.789062 0.5625 -4.859375 0.28125 -4.859375 L 0.28125 -5.0625 C 0.488281 -5.050781 0.691406 -5.046875 0.890625 -5.046875 C 1.304688 -5.046875 1.648438 -5.085938 1.921875 -5.171875 L 1.921875 -3.953125 C 2.035156 -4.273438 2.222656 -4.5625 2.484375 -4.8125 C 2.742188 -5.070312 3.03125 -5.203125 3.34375 -5.203125 Z M 3.34375 -5.203125 "/></g></g></g><g fill="#b6cdbd" fill-opacity="1"><g transform="translate(50.406135, 22.812891)"><g><path d="M 4.5625 -1.1875 C 4.4375 -0.820312 4.210938 -0.507812 3.890625 -0.25 C 3.566406 0.0078125 3.175781 0.140625 2.71875 0.140625 C 2.25 0.140625 1.84375 0.0351562 1.5 -0.171875 C 1.164062 -0.390625 0.90625 -0.691406 0.71875 -1.078125 C 0.539062 -1.460938 0.453125 -1.90625 0.453125 -2.40625 C 0.453125 -2.976562 0.539062 -3.472656 0.71875 -3.890625 C 0.90625 -4.316406 1.164062 -4.640625 1.5 -4.859375 C 1.84375 -5.085938 2.234375 -5.203125 2.671875 -5.203125 C 3.265625 -5.203125 3.71875 -5.023438 4.03125 -4.671875 C 4.351562 -4.316406 4.515625 -3.773438 4.515625 -3.046875 L 1.4375 -3.046875 C 1.414062 -2.859375 1.40625 -2.644531 1.40625 -2.40625 C 1.40625 -1.976562 1.472656 -1.601562 1.609375 -1.28125 C 1.753906 -0.957031 1.941406 -0.707031 2.171875 -0.53125 C 2.410156 -0.363281 2.65625 -0.28125 2.90625 -0.28125 C 3.226562 -0.28125 3.507812 -0.351562 3.75 -0.5 C 3.988281 -0.65625 4.191406 -0.910156 4.359375 -1.265625 Z M 2.640625 -5.015625 C 2.328125 -5.015625 2.054688 -4.863281 1.828125 -4.5625 C 1.609375 -4.257812 1.472656 -3.816406 1.421875 -3.234375 L 3.578125 -3.234375 C 3.585938 -3.742188 3.507812 -4.164062 3.34375 -4.5 C 3.1875 -4.84375 2.953125 -5.015625 2.640625 -5.015625 Z M 2.640625 -5.015625 "/></g></g></g><g fill="#b6cdbd" fill-opacity="1"><g transform="translate(55.385106, 22.812891)"><g><path d="M 7.84375 -0.921875 C 7.84375 -0.648438 7.898438 -0.460938 8.015625 -0.359375 C 8.128906 -0.253906 8.320312 -0.203125 8.59375 -0.203125 L 8.59375 0 C 7.988281 -0.03125 7.59375 -0.046875 7.40625 -0.046875 C 7.226562 -0.046875 6.863281 -0.03125 6.3125 0 L 6.3125 -0.203125 C 6.550781 -0.203125 6.71875 -0.253906 6.8125 -0.359375 C 6.90625 -0.460938 6.953125 -0.648438 6.953125 -0.921875 L 6.953125 -3.765625 C 6.953125 -4.015625 6.9375 -4.210938 6.90625 -4.359375 C 6.882812 -4.515625 6.816406 -4.640625 6.703125 -4.734375 C 6.597656 -4.835938 6.4375 -4.890625 6.21875 -4.890625 C 5.96875 -4.890625 5.738281 -4.8125 5.53125 -4.65625 C 5.332031 -4.5 5.171875 -4.285156 5.046875 -4.015625 C 4.929688 -3.742188 4.875 -3.441406 4.875 -3.109375 L 4.875 -0.921875 C 4.875 -0.648438 4.929688 -0.460938 5.046875 -0.359375 C 5.160156 -0.253906 5.351562 -0.203125 5.625 -0.203125 L 5.625 0 C 5.019531 -0.03125 4.628906 -0.046875 4.453125 -0.046875 C 4.265625 -0.046875 3.894531 -0.03125 3.34375 0 L 3.34375 -0.203125 C 3.59375 -0.203125 3.765625 -0.253906 3.859375 -0.359375 C 3.953125 -0.460938 4 -0.648438 4 -0.921875 L 4 -3.765625 C 4 -4.015625 3.984375 -4.210938 3.953125 -4.359375 C 3.921875 -4.515625 3.847656 -4.640625 3.734375 -4.734375 C 3.628906 -4.835938 3.46875 -4.890625 3.25 -4.890625 C 3 -4.890625 2.769531 -4.8125 2.5625 -4.65625 C 2.363281 -4.5 2.207031 -4.28125 2.09375 -4 C 1.976562 -3.726562 1.921875 -3.425781 1.921875 -3.09375 L 1.921875 -0.921875 C 1.921875 -0.648438 1.96875 -0.460938 2.0625 -0.359375 C 2.15625 -0.253906 2.320312 -0.203125 2.5625 -0.203125 L 2.5625 0 C 2.019531 -0.03125 1.65625 -0.046875 1.46875 -0.046875 C 1.28125 -0.046875 0.882812 -0.03125 0.28125 0 L 0.28125 -0.203125 C 0.5625 -0.203125 0.753906 -0.253906 0.859375 -0.359375 C 0.972656 -0.460938 1.03125 -0.648438 1.03125 -0.921875 L 1.03125 -4 C 1.03125 -4.300781 0.972656 -4.519531 0.859375 -4.65625 C 0.753906 -4.789062 0.5625 -4.859375 0.28125 -4.859375 L 0.28125 -5.0625 C 0.488281 -5.050781 0.691406 -5.046875 0.890625 -5.046875 C 1.304688 -5.046875 1.648438 -5.085938 1.921875 -5.171875 L 1.921875 -4.015625 C 2.078125 -4.421875 2.296875 -4.71875 2.578125 -4.90625 C 2.867188 -5.101562 3.1875 -5.203125 3.53125 -5.203125 C 3.976562 -5.203125 4.320312 -5.078125 4.5625 -4.828125 C 4.71875 -4.660156 4.816406 -4.398438 4.859375 -4.046875 C 5.023438 -4.460938 5.25 -4.757812 5.53125 -4.9375 C 5.820312 -5.113281 6.144531 -5.203125 6.5 -5.203125 C 6.945312 -5.203125 7.285156 -5.078125 7.515625 -4.828125 C 7.640625 -4.703125 7.722656 -4.535156 7.765625 -4.328125 C 7.816406 -4.128906 7.84375 -3.867188 7.84375 -3.546875 Z M 7.84375 -0.921875 "/></g></g></g><g fill="#b6cdbd" fill-opacity="1"><g transform="translate(64.122906, 22.812891)"><g><path d="M 1.609375 0.0625 C 1.191406 0.0625 0.882812 -0.0351562 0.6875 -0.234375 C 0.488281 -0.441406 0.390625 -0.734375 0.390625 -1.109375 C 0.390625 -1.398438 0.46875 -1.640625 0.625 -1.828125 C 0.78125 -2.015625 0.96875 -2.164062 1.1875 -2.28125 C 1.414062 -2.394531 1.707031 -2.515625 2.0625 -2.640625 C 2.4375 -2.765625 2.710938 -2.878906 2.890625 -2.984375 C 3.066406 -3.085938 3.15625 -3.226562 3.15625 -3.40625 L 3.15625 -4.015625 C 3.15625 -4.398438 3.070312 -4.660156 2.90625 -4.796875 C 2.75 -4.941406 2.523438 -5.015625 2.234375 -5.015625 C 1.773438 -5.015625 1.453125 -4.894531 1.265625 -4.65625 C 1.390625 -4.625 1.492188 -4.554688 1.578125 -4.453125 C 1.671875 -4.347656 1.71875 -4.21875 1.71875 -4.0625 C 1.71875 -3.894531 1.664062 -3.765625 1.5625 -3.671875 C 1.457031 -3.578125 1.320312 -3.53125 1.15625 -3.53125 C 0.976562 -3.53125 0.84375 -3.585938 0.75 -3.703125 C 0.65625 -3.816406 0.609375 -3.953125 0.609375 -4.109375 C 0.609375 -4.265625 0.644531 -4.394531 0.71875 -4.5 C 0.800781 -4.613281 0.914062 -4.722656 1.0625 -4.828125 C 1.21875 -4.929688 1.414062 -5.019531 1.65625 -5.09375 C 1.90625 -5.164062 2.175781 -5.203125 2.46875 -5.203125 C 2.976562 -5.203125 3.363281 -5.082031 3.625 -4.84375 C 3.789062 -4.6875 3.898438 -4.503906 3.953125 -4.296875 C 4.003906 -4.085938 4.03125 -3.804688 4.03125 -3.453125 L 4.03125 -0.71875 C 4.03125 -0.550781 4.050781 -0.429688 4.09375 -0.359375 C 4.144531 -0.285156 4.226562 -0.25 4.34375 -0.25 C 4.414062 -0.25 4.488281 -0.265625 4.5625 -0.296875 C 4.632812 -0.335938 4.707031 -0.394531 4.78125 -0.46875 L 4.890625 -0.296875 C 4.722656 -0.160156 4.578125 -0.0664062 4.453125 -0.015625 C 4.328125 0.0351562 4.175781 0.0625 4 0.0625 C 3.6875 0.0625 3.46875 -0.015625 3.34375 -0.171875 C 3.21875 -0.328125 3.15625 -0.539062 3.15625 -0.8125 C 2.957031 -0.476562 2.726562 -0.25 2.46875 -0.125 C 2.21875 0 1.929688 0.0625 1.609375 0.0625 Z M 2.03125 -0.328125 C 2.46875 -0.328125 2.84375 -0.578125 3.15625 -1.078125 L 3.15625 -3 C 3.09375 -2.90625 3.007812 -2.828125 2.90625 -2.765625 C 2.800781 -2.710938 2.640625 -2.640625 2.421875 -2.546875 C 2.171875 -2.429688 1.96875 -2.328125 1.8125 -2.234375 C 1.65625 -2.140625 1.519531 -2.007812 1.40625 -1.84375 C 1.300781 -1.6875 1.25 -1.476562 1.25 -1.21875 C 1.25 -0.925781 1.320312 -0.703125 1.46875 -0.546875 C 1.613281 -0.398438 1.800781 -0.328125 2.03125 -0.328125 Z M 2.03125 -0.328125 "/></g></g></g><g fill="#b6cdbd" fill-opacity="1"><g transform="translate(69.023155, 22.812891)"><g><path d="M 2.046875 -5.203125 C 2.285156 -5.203125 2.492188 -5.164062 2.671875 -5.09375 C 2.859375 -5.019531 3.007812 -4.9375 3.125 -4.84375 C 3.195312 -4.789062 3.253906 -4.765625 3.296875 -4.765625 C 3.410156 -4.765625 3.484375 -4.910156 3.515625 -5.203125 L 3.734375 -5.203125 C 3.710938 -4.878906 3.703125 -4.320312 3.703125 -3.53125 L 3.46875 -3.53125 C 3.394531 -3.957031 3.253906 -4.3125 3.046875 -4.59375 C 2.847656 -4.875 2.546875 -5.015625 2.140625 -5.015625 C 1.898438 -5.015625 1.703125 -4.945312 1.546875 -4.8125 C 1.398438 -4.675781 1.328125 -4.492188 1.328125 -4.265625 C 1.328125 -4.035156 1.40625 -3.84375 1.5625 -3.6875 C 1.71875 -3.53125 1.972656 -3.34375 2.328125 -3.125 C 2.378906 -3.09375 2.46875 -3.039062 2.59375 -2.96875 C 2.894531 -2.769531 3.132812 -2.59375 3.3125 -2.4375 C 3.5 -2.289062 3.648438 -2.117188 3.765625 -1.921875 C 3.878906 -1.722656 3.9375 -1.492188 3.9375 -1.234375 C 3.9375 -0.804688 3.773438 -0.46875 3.453125 -0.21875 C 3.128906 0.0195312 2.726562 0.140625 2.25 0.140625 C 1.957031 0.140625 1.703125 0.09375 1.484375 0 C 1.335938 -0.0703125 1.203125 -0.160156 1.078125 -0.265625 C 1.046875 -0.296875 1.015625 -0.3125 0.984375 -0.3125 C 0.941406 -0.3125 0.898438 -0.273438 0.859375 -0.203125 C 0.828125 -0.140625 0.800781 -0.0507812 0.78125 0.0625 L 0.546875 0.0625 C 0.578125 -0.3125 0.59375 -0.96875 0.59375 -1.90625 L 0.8125 -1.90625 C 0.882812 -1.28125 1.015625 -0.816406 1.203125 -0.515625 C 1.398438 -0.210938 1.726562 -0.0625 2.1875 -0.0625 C 2.414062 -0.0625 2.617188 -0.132812 2.796875 -0.28125 C 2.972656 -0.4375 3.0625 -0.675781 3.0625 -1 C 3.0625 -1.25 2.972656 -1.460938 2.796875 -1.640625 C 2.628906 -1.816406 2.347656 -2.03125 1.953125 -2.28125 C 1.628906 -2.488281 1.378906 -2.65625 1.203125 -2.78125 C 1.023438 -2.914062 0.878906 -3.078125 0.765625 -3.265625 C 0.648438 -3.453125 0.59375 -3.675781 0.59375 -3.9375 C 0.59375 -4.351562 0.726562 -4.664062 1 -4.875 C 1.28125 -5.09375 1.628906 -5.203125 2.046875 -5.203125 Z M 2.046875 -5.203125 "/></g></g></g><g fill="#b6cdbd" fill-opacity="1"><g transform="translate(73.421581, 22.812891)"><g><path d="M 2.75 -5.203125 C 3.1875 -5.203125 3.566406 -5.097656 3.890625 -4.890625 C 4.191406 -4.691406 4.34375 -4.441406 4.34375 -4.140625 C 4.34375 -3.960938 4.296875 -3.820312 4.203125 -3.71875 C 4.109375 -3.625 3.984375 -3.578125 3.828125 -3.578125 C 3.679688 -3.578125 3.550781 -3.617188 3.4375 -3.703125 C 3.332031 -3.796875 3.28125 -3.921875 3.28125 -4.078125 C 3.28125 -4.210938 3.320312 -4.328125 3.40625 -4.421875 C 3.488281 -4.515625 3.585938 -4.578125 3.703125 -4.609375 C 3.640625 -4.734375 3.519531 -4.832031 3.34375 -4.90625 C 3.175781 -4.988281 3 -5.03125 2.8125 -5.03125 C 2.570312 -5.03125 2.347656 -4.953125 2.140625 -4.796875 C 1.929688 -4.640625 1.753906 -4.382812 1.609375 -4.03125 C 1.472656 -3.675781 1.40625 -3.207031 1.40625 -2.625 C 1.40625 -1.800781 1.535156 -1.203125 1.796875 -0.828125 C 2.054688 -0.460938 2.398438 -0.28125 2.828125 -0.28125 C 3.109375 -0.28125 3.375 -0.363281 3.625 -0.53125 C 3.875 -0.695312 4.082031 -0.953125 4.25 -1.296875 L 4.4375 -1.234375 C 4.320312 -0.859375 4.113281 -0.535156 3.8125 -0.265625 C 3.507812 0.00390625 3.113281 0.140625 2.625 0.140625 C 2.21875 0.140625 1.847656 0.0351562 1.515625 -0.171875 C 1.191406 -0.390625 0.929688 -0.695312 0.734375 -1.09375 C 0.546875 -1.488281 0.453125 -1.945312 0.453125 -2.46875 C 0.453125 -3 0.546875 -3.472656 0.734375 -3.890625 C 0.929688 -4.304688 1.203125 -4.628906 1.546875 -4.859375 C 1.898438 -5.085938 2.300781 -5.203125 2.75 -5.203125 Z M 2.75 -5.203125 "/></g></g></g><g fill="#b6cdbd" fill-opacity="1"><g transform="translate(78.203759, 22.812891)"><g><path d="M 2.703125 -5.203125 C 3.367188 -5.203125 3.90625 -4.976562 4.3125 -4.53125 C 4.726562 -4.09375 4.9375 -3.425781 4.9375 -2.53125 C 4.9375 -1.632812 4.726562 -0.960938 4.3125 -0.515625 C 3.90625 -0.078125 3.367188 0.140625 2.703125 0.140625 C 2.023438 0.140625 1.484375 -0.078125 1.078125 -0.515625 C 0.671875 -0.960938 0.46875 -1.632812 0.46875 -2.53125 C 0.46875 -3.425781 0.671875 -4.09375 1.078125 -4.53125 C 1.484375 -4.976562 2.023438 -5.203125 2.703125 -5.203125 Z M 2.703125 -5.015625 C 2.304688 -5.015625 1.992188 -4.8125 1.765625 -4.40625 C 1.535156 -4 1.421875 -3.375 1.421875 -2.53125 C 1.421875 -1.6875 1.535156 -1.0625 1.765625 -0.65625 C 1.992188 -0.257812 2.304688 -0.0625 2.703125 -0.0625 C 3.085938 -0.0625 3.394531 -0.257812 3.625 -0.65625 C 3.863281 -1.0625 3.984375 -1.6875 3.984375 -2.53125 C 3.984375 -3.375 3.863281 -4 3.625 -4.40625 C 3.394531 -4.8125 3.085938 -5.015625 2.703125 -5.015625 Z M 2.703125 -5.015625 "/></g></g></g><g fill="#b6cdbd" fill-opacity="1"><g transform="translate(83.596008, 22.812891)"><g><path d="M 1.84375 -0.921875 C 1.84375 -0.648438 1.898438 -0.460938 2.015625 -0.359375 C 2.128906 -0.253906 2.320312 -0.203125 2.59375 -0.203125 L 2.59375 0 C 1.988281 -0.03125 1.59375 -0.046875 1.40625 -0.046875 C 1.21875 -0.046875 0.820312 -0.03125 0.21875 0 L 0.21875 -0.203125 C 0.488281 -0.203125 0.679688 -0.253906 0.796875 -0.359375 C 0.910156 -0.460938 0.96875 -0.648438 0.96875 -0.921875 L 0.96875 -6.53125 C 0.96875 -6.832031 0.910156 -7.050781 0.796875 -7.1875 C 0.679688 -7.332031 0.488281 -7.40625 0.21875 -7.40625 L 0.21875 -7.609375 C 0.414062 -7.585938 0.617188 -7.578125 0.828125 -7.578125 C 1.242188 -7.578125 1.582031 -7.625 1.84375 -7.71875 Z M 1.84375 -0.921875 "/></g></g></g><g clip-path="url(#aca7f1af85)"><g fill="#b6cdbd" fill-opacity="1"><g transform="translate(86.410209, 22.812891)"><g><path d="M 1.40625 -7.53125 C 1.570312 -7.53125 1.71875 -7.46875 1.84375 -7.34375 C 1.96875 -7.21875 2.03125 -7.070312 2.03125 -6.90625 C 2.03125 -6.726562 1.96875 -6.578125 1.84375 -6.453125 C 1.71875 -6.328125 1.570312 -6.265625 1.40625 -6.265625 C 1.226562 -6.265625 1.078125 -6.328125 0.953125 -6.453125 C 0.828125 -6.578125 0.765625 -6.726562 0.765625 -6.90625 C 0.765625 -7.070312 0.828125 -7.21875 0.953125 -7.34375 C 1.078125 -7.46875 1.226562 -7.53125 1.40625 -7.53125 Z M 1.921875 -0.921875 C 1.921875 -0.648438 1.972656 -0.460938 2.078125 -0.359375 C 2.191406 -0.253906 2.390625 -0.203125 2.671875 -0.203125 L 2.671875 0 C 2.066406 -0.03125 1.671875 -0.046875 1.484375 -0.046875 C 1.285156 -0.046875 0.882812 -0.03125 0.28125 0 L 0.28125 -0.203125 C 0.5625 -0.203125 0.753906 -0.253906 0.859375 -0.359375 C 0.972656 -0.460938 1.03125 -0.648438 1.03125 -0.921875 L 1.03125 -4 C 1.03125 -4.300781 0.972656 -4.519531 0.859375 -4.65625 C 0.753906 -4.789062 0.5625 -4.859375 0.28125 -4.859375 L 0.28125 -5.0625 C 0.488281 -5.050781 0.691406 -5.046875 0.890625 -5.046875 C 1.304688 -5.046875 1.648438 -5.085938 1.921875 -5.171875 Z M 1.921875 -0.921875 "/></g></g></g></g></svg>