<svg xmlns="http://www.w3.org/2000/svg" xmlns:xlink="http://www.w3.org/1999/xlink" width="120" zoomAndPan="magnify" viewBox="0 0 90 31.5" height="42" preserveAspectRatio="xMidYMid meet" version="1.0"><defs><g/><clipPath id="a60686a6dd"><path d="M 0.792969 0 L 37.527344 0 L 37.527344 30.992188 L 0.792969 30.992188 Z M 0.792969 0 " clip-rule="nonzero"/></clipPath></defs><g clip-path="url(#a60686a6dd)"><path fill="#66bfbf" d="M 13.71875 28.449219 L 24.683594 28.449219 C 24.828125 28.449219 24.929688 28.550781 24.929688 28.695312 L 24.929688 29.9375 C 24.929688 30.078125 24.828125 30.183594 24.683594 30.183594 L 13.71875 30.183594 C 13.578125 30.183594 13.492188 30.082031 13.492188 29.9375 L 13.492188 28.695312 C 13.492188 28.550781 13.578125 28.449219 13.71875 28.449219 Z M 15.761719 24.992188 L 22.628906 24.992188 L 23.398438 27.636719 L 15.007812 27.636719 Z M 25.277344 6.425781 C 24.976562 6.46875 24.816406 6.917969 25.046875 7.132812 L 30.457031 12.539062 L 25.046875 17.925781 C 24.855469 18.074219 24.84375 18.378906 25 18.535156 C 25.164062 18.695312 25.464844 18.679688 25.609375 18.507812 L 31.308594 12.8125 C 31.46875 12.667969 31.46875 12.394531 31.308594 12.25 L 25.609375 6.558594 C 25.523438 6.46875 25.410156 6.425781 25.277344 6.425781 Z M 12.941406 6.425781 C 12.855469 6.441406 12.769531 6.5 12.710938 6.558594 L 7.011719 12.25 C 6.851562 12.394531 6.851562 12.667969 7.011719 12.8125 L 12.710938 18.507812 C 12.855469 18.679688 13.160156 18.695312 13.316406 18.535156 C 13.476562 18.378906 13.464844 18.074219 13.273438 17.925781 L 7.863281 12.539062 L 13.273438 7.132812 C 13.535156 6.902344 13.285156 6.398438 12.941406 6.425781 Z M 23.109375 5.09375 C 22.960938 5.113281 22.847656 5.183594 22.777344 5.300781 L 14.691406 19.273438 C 14.589844 19.460938 14.664062 19.734375 14.851562 19.835938 C 15.039062 19.953125 15.300781 19.882812 15.417969 19.691406 L 23.5 5.703125 C 23.644531 5.445312 23.398438 5.070312 23.109375 5.09375 Z M 3.976562 3.335938 L 34.359375 3.335938 L 34.359375 21.65625 L 3.976562 21.65625 Z M 3.542969 2.527344 C 3.324219 2.539062 3.152344 2.730469 3.152344 2.929688 L 3.152344 22.0625 C 3.152344 22.277344 3.351562 22.464844 3.554688 22.464844 L 34.777344 22.464844 C 34.984375 22.464844 35.183594 22.277344 35.183594 22.0625 L 35.183594 2.929688 C 35.183594 2.730469 35.007812 2.539062 34.808594 2.523438 C 34.792969 2.523438 34.777344 2.523438 34.777344 2.523438 L 3.542969 2.523438 Z M 3.542969 0.820312 L 34.777344 0.820312 C 35.863281 0.820312 36.71875 1.65625 36.71875 2.742188 L 36.71875 22.265625 C 36.71875 23.332031 35.863281 24.1875 34.777344 24.1875 L 3.542969 24.1875 C 2.457031 24.1875 1.601562 23.332031 1.601562 22.265625 L 1.601562 2.742188 C 1.601562 1.65625 2.457031 0.820312 3.542969 0.820312 Z M 3.542969 -0.00390625 C 2.023438 -0.00390625 0.792969 1.222656 0.792969 2.742188 L 0.792969 22.265625 C 0.792969 23.765625 2.023438 24.996094 3.542969 24.996094 L 14.925781 24.996094 L 14.171875 27.640625 L 13.71875 27.640625 C 13.144531 27.640625 12.667969 28.117188 12.667969 28.695312 L 12.667969 29.9375 C 12.667969 30.515625 13.144531 30.992188 13.71875 30.992188 L 24.683594 30.992188 C 25.261719 30.992188 25.742188 30.515625 25.742188 29.9375 L 25.742188 28.695312 C 25.742188 28.117188 25.261719 27.640625 24.683594 27.640625 L 24.238281 27.640625 L 23.484375 24.996094 L 34.777344 24.996094 C 36.296875 24.996094 37.527344 23.765625 37.527344 22.265625 L 37.527344 2.742188 C 37.527344 1.222656 36.296875 -0.00390625 34.777344 -0.00390625 L 3.542969 -0.00390625 " fill-opacity="1" fill-rule="nonzero"/></g><g fill="#66bfbf" fill-opacity="1"><g transform="translate(43.071238, 13.436719)"><g><path d="M 2.265625 -6.375 C 2.523438 -6.375 2.726562 -6.34375 2.875 -6.28125 C 3.03125 -6.226562 3.1875 -6.148438 3.34375 -6.046875 C 3.476562 -5.960938 3.582031 -5.921875 3.65625 -5.921875 C 3.707031 -5.921875 3.742188 -5.953125 3.765625 -6.015625 C 3.796875 -6.078125 3.820312 -6.175781 3.84375 -6.3125 L 4.046875 -6.3125 C 4.015625 -5.96875 4 -5.363281 4 -4.5 L 3.796875 -4.5 C 3.765625 -4.976562 3.628906 -5.378906 3.390625 -5.703125 C 3.148438 -6.035156 2.800781 -6.203125 2.34375 -6.203125 C 2.03125 -6.203125 1.769531 -6.101562 1.5625 -5.90625 C 1.363281 -5.71875 1.265625 -5.472656 1.265625 -5.171875 C 1.265625 -4.953125 1.316406 -4.757812 1.421875 -4.59375 C 1.523438 -4.425781 1.65625 -4.28125 1.8125 -4.15625 C 1.976562 -4.039062 2.207031 -3.894531 2.5 -3.71875 L 2.75 -3.546875 C 3.125 -3.316406 3.414062 -3.113281 3.625 -2.9375 C 3.84375 -2.769531 4.015625 -2.570312 4.140625 -2.34375 C 4.273438 -2.125 4.34375 -1.863281 4.34375 -1.5625 C 4.34375 -1.019531 4.164062 -0.601562 3.8125 -0.3125 C 3.457031 -0.0195312 3.007812 0.125 2.46875 0.125 C 2.1875 0.125 1.953125 0.09375 1.765625 0.03125 C 1.585938 -0.0195312 1.421875 -0.0976562 1.265625 -0.203125 C 1.128906 -0.285156 1.023438 -0.328125 0.953125 -0.328125 C 0.898438 -0.328125 0.859375 -0.296875 0.828125 -0.234375 C 0.796875 -0.171875 0.773438 -0.0703125 0.765625 0.0625 L 0.5625 0.0625 C 0.582031 -0.257812 0.59375 -0.96875 0.59375 -2.0625 L 0.796875 -2.0625 C 0.835938 -1.46875 0.984375 -0.984375 1.234375 -0.609375 C 1.492188 -0.234375 1.882812 -0.046875 2.40625 -0.046875 C 2.726562 -0.046875 3 -0.144531 3.21875 -0.34375 C 3.445312 -0.539062 3.5625 -0.835938 3.5625 -1.234375 C 3.5625 -1.566406 3.445312 -1.847656 3.21875 -2.078125 C 3 -2.304688 2.648438 -2.566406 2.171875 -2.859375 C 1.828125 -3.066406 1.546875 -3.253906 1.328125 -3.421875 C 1.117188 -3.585938 0.945312 -3.785156 0.8125 -4.015625 C 0.675781 -4.253906 0.609375 -4.53125 0.609375 -4.84375 C 0.609375 -5.332031 0.765625 -5.707031 1.078125 -5.96875 C 1.398438 -6.238281 1.796875 -6.375 2.265625 -6.375 Z M 2.265625 -6.375 "/></g></g></g><g fill="#66bfbf" fill-opacity="1"><g transform="translate(47.855331, 13.436719)"><g><path d="M 1.265625 -6.78125 C 1.421875 -6.78125 1.550781 -6.722656 1.65625 -6.609375 C 1.769531 -6.492188 1.828125 -6.359375 1.828125 -6.203125 C 1.828125 -6.054688 1.769531 -5.925781 1.65625 -5.8125 C 1.550781 -5.695312 1.421875 -5.640625 1.265625 -5.640625 C 1.109375 -5.640625 0.972656 -5.695312 0.859375 -5.8125 C 0.753906 -5.925781 0.703125 -6.054688 0.703125 -6.203125 C 0.703125 -6.359375 0.753906 -6.492188 0.859375 -6.609375 C 0.972656 -6.722656 1.109375 -6.78125 1.265625 -6.78125 Z M 1.734375 -0.828125 C 1.734375 -0.578125 1.78125 -0.40625 1.875 -0.3125 C 1.976562 -0.226562 2.15625 -0.1875 2.40625 -0.1875 L 2.40625 0 C 1.851562 -0.0195312 1.492188 -0.03125 1.328125 -0.03125 C 1.160156 -0.03125 0.800781 -0.0195312 0.25 0 L 0.25 -0.1875 C 0.5 -0.1875 0.675781 -0.226562 0.78125 -0.3125 C 0.882812 -0.40625 0.9375 -0.578125 0.9375 -0.828125 L 0.9375 -3.59375 C 0.9375 -3.863281 0.882812 -4.0625 0.78125 -4.1875 C 0.675781 -4.3125 0.5 -4.375 0.25 -4.375 L 0.25 -4.5625 C 0.445312 -4.539062 0.632812 -4.53125 0.8125 -4.53125 C 1.175781 -4.53125 1.484375 -4.570312 1.734375 -4.65625 Z M 1.734375 -0.828125 "/></g></g></g><g fill="#66bfbf" fill-opacity="1"><g transform="translate(50.451144, 13.436719)"><g><path d="M 1.671875 -0.828125 C 1.671875 -0.578125 1.71875 -0.40625 1.8125 -0.3125 C 1.914062 -0.226562 2.09375 -0.1875 2.34375 -0.1875 L 2.34375 0 C 1.800781 -0.0195312 1.441406 -0.03125 1.265625 -0.03125 C 1.097656 -0.03125 0.738281 -0.0195312 0.1875 0 L 0.1875 -0.1875 C 0.4375 -0.1875 0.613281 -0.226562 0.71875 -0.3125 C 0.820312 -0.40625 0.875 -0.578125 0.875 -0.828125 L 0.875 -5.875 C 0.875 -6.15625 0.820312 -6.351562 0.71875 -6.46875 C 0.613281 -6.59375 0.4375 -6.65625 0.1875 -6.65625 L 0.1875 -6.84375 C 0.375 -6.832031 0.5625 -6.828125 0.75 -6.828125 C 1.113281 -6.828125 1.421875 -6.867188 1.671875 -6.953125 Z M 1.671875 -0.828125 "/></g></g></g><g fill="#66bfbf" fill-opacity="1"><g transform="translate(52.984942, 13.436719)"><g><path d="M 3.625 -4.53125 C 3.882812 -4.53125 4.113281 -4.539062 4.3125 -4.5625 L 4.3125 -4.390625 C 4.1875 -4.378906 4.078125 -4.320312 3.984375 -4.21875 C 3.898438 -4.125 3.816406 -3.972656 3.734375 -3.765625 L 2.28125 0.046875 L 2.125 0.046875 L 0.5 -3.875 C 0.40625 -4.082031 0.316406 -4.21875 0.234375 -4.28125 C 0.148438 -4.34375 0.0664062 -4.375 -0.015625 -4.375 L -0.015625 -4.5625 C 0.285156 -4.539062 0.546875 -4.53125 0.765625 -4.53125 C 1.210938 -4.53125 1.59375 -4.539062 1.90625 -4.5625 L 1.90625 -4.375 C 1.6875 -4.375 1.523438 -4.359375 1.421875 -4.328125 C 1.328125 -4.296875 1.28125 -4.210938 1.28125 -4.078125 C 1.28125 -3.992188 1.3125 -3.863281 1.375 -3.6875 L 2.46875 -1 L 3.453125 -3.546875 C 3.515625 -3.722656 3.546875 -3.863281 3.546875 -3.96875 C 3.546875 -4.101562 3.492188 -4.203125 3.390625 -4.265625 C 3.285156 -4.328125 3.117188 -4.367188 2.890625 -4.390625 L 2.890625 -4.5625 C 3.191406 -4.539062 3.4375 -4.53125 3.625 -4.53125 Z M 3.625 -4.53125 "/></g></g></g><g fill="#66bfbf" fill-opacity="1"><g transform="translate(57.317207, 13.436719)"><g><path d="M 1.265625 -6.78125 C 1.421875 -6.78125 1.550781 -6.722656 1.65625 -6.609375 C 1.769531 -6.492188 1.828125 -6.359375 1.828125 -6.203125 C 1.828125 -6.054688 1.769531 -5.925781 1.65625 -5.8125 C 1.550781 -5.695312 1.421875 -5.640625 1.265625 -5.640625 C 1.109375 -5.640625 0.972656 -5.695312 0.859375 -5.8125 C 0.753906 -5.925781 0.703125 -6.054688 0.703125 -6.203125 C 0.703125 -6.359375 0.753906 -6.492188 0.859375 -6.609375 C 0.972656 -6.722656 1.109375 -6.78125 1.265625 -6.78125 Z M 1.734375 -0.828125 C 1.734375 -0.578125 1.78125 -0.40625 1.875 -0.3125 C 1.976562 -0.226562 2.15625 -0.1875 2.40625 -0.1875 L 2.40625 0 C 1.851562 -0.0195312 1.492188 -0.03125 1.328125 -0.03125 C 1.160156 -0.03125 0.800781 -0.0195312 0.25 0 L 0.25 -0.1875 C 0.5 -0.1875 0.675781 -0.226562 0.78125 -0.3125 C 0.882812 -0.40625 0.9375 -0.578125 0.9375 -0.828125 L 0.9375 -3.59375 C 0.9375 -3.863281 0.882812 -4.0625 0.78125 -4.1875 C 0.675781 -4.3125 0.5 -4.375 0.25 -4.375 L 0.25 -4.5625 C 0.445312 -4.539062 0.632812 -4.53125 0.8125 -4.53125 C 1.175781 -4.53125 1.484375 -4.570312 1.734375 -4.65625 Z M 1.734375 -0.828125 "/></g></g></g><g fill="#66bfbf" fill-opacity="1"><g transform="translate(59.91302, 13.436719)"><g><path d="M 1.4375 0.0625 C 1.070312 0.0625 0.796875 -0.03125 0.609375 -0.21875 C 0.429688 -0.40625 0.34375 -0.664062 0.34375 -1 C 0.34375 -1.257812 0.414062 -1.472656 0.5625 -1.640625 C 0.707031 -1.816406 0.878906 -1.953125 1.078125 -2.046875 C 1.273438 -2.148438 1.535156 -2.257812 1.859375 -2.375 C 2.191406 -2.488281 2.4375 -2.59375 2.59375 -2.6875 C 2.75 -2.78125 2.828125 -2.90625 2.828125 -3.0625 L 2.828125 -3.609375 C 2.828125 -3.953125 2.753906 -4.1875 2.609375 -4.3125 C 2.472656 -4.445312 2.273438 -4.515625 2.015625 -4.515625 C 1.597656 -4.515625 1.304688 -4.40625 1.140625 -4.1875 C 1.253906 -4.15625 1.347656 -4.09375 1.421875 -4 C 1.503906 -3.90625 1.546875 -3.789062 1.546875 -3.65625 C 1.546875 -3.5 1.5 -3.378906 1.40625 -3.296875 C 1.3125 -3.210938 1.191406 -3.171875 1.046875 -3.171875 C 0.878906 -3.171875 0.753906 -3.222656 0.671875 -3.328125 C 0.585938 -3.429688 0.546875 -3.554688 0.546875 -3.703125 C 0.546875 -3.847656 0.578125 -3.96875 0.640625 -4.0625 C 0.710938 -4.15625 0.816406 -4.25 0.953125 -4.34375 C 1.097656 -4.4375 1.28125 -4.515625 1.5 -4.578125 C 1.71875 -4.648438 1.957031 -4.6875 2.21875 -4.6875 C 2.675781 -4.6875 3.023438 -4.578125 3.265625 -4.359375 C 3.410156 -4.222656 3.503906 -4.054688 3.546875 -3.859375 C 3.597656 -3.671875 3.625 -3.421875 3.625 -3.109375 L 3.625 -0.640625 C 3.625 -0.492188 3.644531 -0.390625 3.6875 -0.328125 C 3.726562 -0.265625 3.800781 -0.234375 3.90625 -0.234375 C 3.976562 -0.234375 4.046875 -0.25 4.109375 -0.28125 C 4.171875 -0.3125 4.238281 -0.359375 4.3125 -0.421875 L 4.40625 -0.265625 C 4.25 -0.148438 4.113281 -0.0664062 4 -0.015625 C 3.894531 0.0351562 3.757812 0.0625 3.59375 0.0625 C 3.3125 0.0625 3.113281 -0.00390625 3 -0.140625 C 2.882812 -0.285156 2.828125 -0.476562 2.828125 -0.71875 C 2.648438 -0.425781 2.445312 -0.222656 2.21875 -0.109375 C 1.988281 0.00390625 1.726562 0.0625 1.4375 0.0625 Z M 1.828125 -0.296875 C 2.222656 -0.296875 2.554688 -0.519531 2.828125 -0.96875 L 2.828125 -2.703125 C 2.773438 -2.617188 2.703125 -2.550781 2.609375 -2.5 C 2.515625 -2.445312 2.367188 -2.375 2.171875 -2.28125 C 1.953125 -2.1875 1.769531 -2.097656 1.625 -2.015625 C 1.488281 -1.929688 1.367188 -1.8125 1.265625 -1.65625 C 1.171875 -1.507812 1.125 -1.320312 1.125 -1.09375 C 1.125 -0.832031 1.1875 -0.632812 1.3125 -0.5 C 1.445312 -0.363281 1.617188 -0.296875 1.828125 -0.296875 Z M 1.828125 -0.296875 "/></g></g></g><g fill="#66bfbf" fill-opacity="1"><g transform="translate(42.471385, 23.477331)"><g><path d="M 3.28125 -6.390625 C 3.632812 -6.390625 3.9375 -6.335938 4.1875 -6.234375 C 4.4375 -6.140625 4.679688 -6.003906 4.921875 -5.828125 C 4.984375 -5.765625 5.035156 -5.734375 5.078125 -5.734375 C 5.203125 -5.734375 5.28125 -5.910156 5.3125 -6.265625 L 5.515625 -6.265625 C 5.492188 -5.890625 5.484375 -5.210938 5.484375 -4.234375 L 5.28125 -4.234375 C 5.21875 -4.617188 5.15625 -4.894531 5.09375 -5.0625 C 5.039062 -5.226562 4.957031 -5.390625 4.84375 -5.546875 C 4.664062 -5.773438 4.4375 -5.945312 4.15625 -6.0625 C 3.882812 -6.175781 3.585938 -6.234375 3.265625 -6.234375 C 2.878906 -6.234375 2.539062 -6.101562 2.25 -5.84375 C 1.96875 -5.59375 1.75 -5.234375 1.59375 -4.765625 C 1.4375 -4.296875 1.359375 -3.75 1.359375 -3.125 C 1.359375 -2.476562 1.441406 -1.921875 1.609375 -1.453125 C 1.785156 -0.992188 2.023438 -0.644531 2.328125 -0.40625 C 2.628906 -0.164062 2.972656 -0.046875 3.359375 -0.046875 C 3.648438 -0.046875 3.9375 -0.101562 4.21875 -0.21875 C 4.5 -0.332031 4.71875 -0.5 4.875 -0.71875 C 4.988281 -0.882812 5.070312 -1.0625 5.125 -1.25 C 5.175781 -1.445312 5.226562 -1.738281 5.28125 -2.125 L 5.484375 -2.125 C 5.484375 -1.113281 5.492188 -0.40625 5.515625 0 L 5.3125 0 C 5.289062 -0.1875 5.265625 -0.316406 5.234375 -0.390625 C 5.203125 -0.472656 5.160156 -0.515625 5.109375 -0.515625 C 5.054688 -0.515625 4.992188 -0.492188 4.921875 -0.453125 C 4.648438 -0.265625 4.394531 -0.117188 4.15625 -0.015625 C 3.914062 0.078125 3.625 0.125 3.28125 0.125 C 2.71875 0.125 2.222656 0 1.796875 -0.25 C 1.378906 -0.507812 1.050781 -0.878906 0.8125 -1.359375 C 0.582031 -1.835938 0.46875 -2.410156 0.46875 -3.078125 C 0.46875 -3.734375 0.585938 -4.3125 0.828125 -4.8125 C 1.066406 -5.3125 1.398438 -5.695312 1.828125 -5.96875 C 2.253906 -6.25 2.738281 -6.390625 3.28125 -6.390625 Z M 3.28125 -6.390625 "/></g></g></g><g fill="#66bfbf" fill-opacity="1"><g transform="translate(48.566667, 23.477331)"><g><path d="M 3.015625 -4.6875 C 3.242188 -4.6875 3.429688 -4.617188 3.578125 -4.484375 C 3.734375 -4.347656 3.8125 -4.179688 3.8125 -3.984375 C 3.8125 -3.828125 3.765625 -3.691406 3.671875 -3.578125 C 3.585938 -3.472656 3.46875 -3.421875 3.3125 -3.421875 C 3.1875 -3.421875 3.078125 -3.460938 2.984375 -3.546875 C 2.890625 -3.628906 2.84375 -3.742188 2.84375 -3.890625 C 2.84375 -4.085938 2.941406 -4.25 3.140625 -4.375 C 3.097656 -4.425781 3.035156 -4.453125 2.953125 -4.453125 C 2.722656 -4.453125 2.515625 -4.363281 2.328125 -4.1875 C 2.140625 -4.007812 1.992188 -3.789062 1.890625 -3.53125 C 1.785156 -3.269531 1.734375 -3.023438 1.734375 -2.796875 L 1.734375 -0.90625 C 1.734375 -0.632812 1.8125 -0.445312 1.96875 -0.34375 C 2.125 -0.238281 2.359375 -0.1875 2.671875 -0.1875 L 2.671875 0 L 2.453125 -0.015625 C 1.847656 -0.0234375 1.460938 -0.03125 1.296875 -0.03125 C 1.148438 -0.03125 0.800781 -0.0195312 0.25 0 L 0.25 -0.1875 C 0.5 -0.1875 0.675781 -0.226562 0.78125 -0.3125 C 0.882812 -0.40625 0.9375 -0.578125 0.9375 -0.828125 L 0.9375 -3.59375 C 0.9375 -3.863281 0.882812 -4.0625 0.78125 -4.1875 C 0.675781 -4.3125 0.5 -4.375 0.25 -4.375 L 0.25 -4.5625 C 0.445312 -4.539062 0.632812 -4.53125 0.8125 -4.53125 C 1.175781 -4.53125 1.484375 -4.570312 1.734375 -4.65625 L 1.734375 -3.546875 C 1.835938 -3.847656 2.003906 -4.113281 2.234375 -4.34375 C 2.472656 -4.570312 2.734375 -4.6875 3.015625 -4.6875 Z M 3.015625 -4.6875 "/></g></g></g><g fill="#66bfbf" fill-opacity="1"><g transform="translate(52.509114, 23.477331)"><g><path d="M 4.109375 -1.0625 C 3.992188 -0.738281 3.789062 -0.457031 3.5 -0.21875 C 3.207031 0.0078125 2.851562 0.125 2.4375 0.125 C 2.019531 0.125 1.65625 0.03125 1.34375 -0.15625 C 1.039062 -0.351562 0.804688 -0.625 0.640625 -0.96875 C 0.484375 -1.3125 0.40625 -1.710938 0.40625 -2.171875 C 0.40625 -2.679688 0.488281 -3.125 0.65625 -3.5 C 0.820312 -3.882812 1.054688 -4.175781 1.359375 -4.375 C 1.660156 -4.582031 2.007812 -4.6875 2.40625 -4.6875 C 2.9375 -4.6875 3.34375 -4.523438 3.625 -4.203125 C 3.914062 -3.878906 4.0625 -3.390625 4.0625 -2.734375 L 1.296875 -2.734375 C 1.273438 -2.566406 1.265625 -2.378906 1.265625 -2.171875 C 1.265625 -1.773438 1.328125 -1.429688 1.453125 -1.140625 C 1.578125 -0.859375 1.742188 -0.640625 1.953125 -0.484375 C 2.171875 -0.328125 2.394531 -0.25 2.625 -0.25 C 2.90625 -0.25 3.15625 -0.316406 3.375 -0.453125 C 3.59375 -0.585938 3.773438 -0.816406 3.921875 -1.140625 Z M 2.375 -4.515625 C 2.09375 -4.515625 1.851562 -4.378906 1.65625 -4.109375 C 1.457031 -3.835938 1.332031 -3.4375 1.28125 -2.90625 L 3.21875 -2.90625 C 3.226562 -3.363281 3.160156 -3.742188 3.015625 -4.046875 C 2.867188 -4.359375 2.65625 -4.515625 2.375 -4.515625 Z M 2.375 -4.515625 "/></g></g></g><g fill="#66bfbf" fill-opacity="1"><g transform="translate(56.991977, 23.477331)"><g><path d="M 7.0625 -0.828125 C 7.0625 -0.578125 7.109375 -0.40625 7.203125 -0.3125 C 7.304688 -0.226562 7.484375 -0.1875 7.734375 -0.1875 L 7.734375 0 C 7.191406 -0.0195312 6.835938 -0.03125 6.671875 -0.03125 C 6.503906 -0.03125 6.171875 -0.0195312 5.671875 0 L 5.671875 -0.1875 C 5.890625 -0.1875 6.039062 -0.226562 6.125 -0.3125 C 6.21875 -0.40625 6.265625 -0.578125 6.265625 -0.828125 L 6.265625 -3.390625 C 6.265625 -3.609375 6.25 -3.785156 6.21875 -3.921875 C 6.195312 -4.066406 6.132812 -4.179688 6.03125 -4.265625 C 5.9375 -4.359375 5.789062 -4.40625 5.59375 -4.40625 C 5.363281 -4.40625 5.15625 -4.332031 4.96875 -4.1875 C 4.789062 -4.050781 4.648438 -3.859375 4.546875 -3.609375 C 4.441406 -3.367188 4.390625 -3.097656 4.390625 -2.796875 L 4.390625 -0.828125 C 4.390625 -0.578125 4.441406 -0.40625 4.546875 -0.3125 C 4.648438 -0.226562 4.820312 -0.1875 5.0625 -0.1875 L 5.0625 0 C 4.519531 -0.0195312 4.164062 -0.03125 4 -0.03125 C 3.832031 -0.03125 3.503906 -0.0195312 3.015625 0 L 3.015625 -0.1875 C 3.234375 -0.1875 3.382812 -0.226562 3.46875 -0.3125 C 3.550781 -0.40625 3.59375 -0.578125 3.59375 -0.828125 L 3.59375 -3.390625 C 3.59375 -3.609375 3.578125 -3.785156 3.546875 -3.921875 C 3.523438 -4.066406 3.460938 -4.179688 3.359375 -4.265625 C 3.265625 -4.359375 3.117188 -4.40625 2.921875 -4.40625 C 2.703125 -4.40625 2.5 -4.332031 2.3125 -4.1875 C 2.125 -4.050781 1.976562 -3.859375 1.875 -3.609375 C 1.78125 -3.359375 1.734375 -3.085938 1.734375 -2.796875 L 1.734375 -0.828125 C 1.734375 -0.578125 1.773438 -0.40625 1.859375 -0.3125 C 1.941406 -0.226562 2.09375 -0.1875 2.3125 -0.1875 L 2.3125 0 C 1.8125 -0.0195312 1.476562 -0.03125 1.3125 -0.03125 C 1.15625 -0.03125 0.800781 -0.0195312 0.25 0 L 0.25 -0.1875 C 0.5 -0.1875 0.675781 -0.226562 0.78125 -0.3125 C 0.882812 -0.40625 0.9375 -0.578125 0.9375 -0.828125 L 0.9375 -3.59375 C 0.9375 -3.863281 0.882812 -4.0625 0.78125 -4.1875 C 0.675781 -4.3125 0.5 -4.375 0.25 -4.375 L 0.25 -4.5625 C 0.445312 -4.539062 0.632812 -4.53125 0.8125 -4.53125 C 1.175781 -4.53125 1.484375 -4.570312 1.734375 -4.65625 L 1.734375 -3.609375 C 1.867188 -3.972656 2.066406 -4.242188 2.328125 -4.421875 C 2.585938 -4.597656 2.875 -4.6875 3.1875 -4.6875 C 3.582031 -4.6875 3.890625 -4.570312 4.109375 -4.34375 C 4.253906 -4.195312 4.34375 -3.960938 4.375 -3.640625 C 4.519531 -4.015625 4.722656 -4.28125 4.984375 -4.4375 C 5.242188 -4.601562 5.53125 -4.6875 5.84375 -4.6875 C 6.25 -4.6875 6.554688 -4.570312 6.765625 -4.34375 C 6.867188 -4.226562 6.941406 -4.078125 6.984375 -3.890625 C 7.035156 -3.710938 7.0625 -3.476562 7.0625 -3.1875 Z M 7.0625 -0.828125 "/></g></g></g><g fill="#66bfbf" fill-opacity="1"><g transform="translate(64.85915, 23.477331)"><g><path d="M 1.4375 0.0625 C 1.070312 0.0625 0.796875 -0.03125 0.609375 -0.21875 C 0.429688 -0.40625 0.34375 -0.664062 0.34375 -1 C 0.34375 -1.257812 0.414062 -1.472656 0.5625 -1.640625 C 0.707031 -1.816406 0.878906 -1.953125 1.078125 -2.046875 C 1.273438 -2.148438 1.535156 -2.257812 1.859375 -2.375 C 2.191406 -2.488281 2.4375 -2.59375 2.59375 -2.6875 C 2.75 -2.78125 2.828125 -2.90625 2.828125 -3.0625 L 2.828125 -3.609375 C 2.828125 -3.953125 2.753906 -4.1875 2.609375 -4.3125 C 2.472656 -4.445312 2.273438 -4.515625 2.015625 -4.515625 C 1.597656 -4.515625 1.304688 -4.40625 1.140625 -4.1875 C 1.253906 -4.15625 1.347656 -4.09375 1.421875 -4 C 1.503906 -3.90625 1.546875 -3.789062 1.546875 -3.65625 C 1.546875 -3.5 1.5 -3.378906 1.40625 -3.296875 C 1.3125 -3.210938 1.191406 -3.171875 1.046875 -3.171875 C 0.878906 -3.171875 0.753906 -3.222656 0.671875 -3.328125 C 0.585938 -3.429688 0.546875 -3.554688 0.546875 -3.703125 C 0.546875 -3.847656 0.578125 -3.96875 0.640625 -4.0625 C 0.710938 -4.15625 0.816406 -4.25 0.953125 -4.34375 C 1.097656 -4.4375 1.28125 -4.515625 1.5 -4.578125 C 1.71875 -4.648438 1.957031 -4.6875 2.21875 -4.6875 C 2.675781 -4.6875 3.023438 -4.578125 3.265625 -4.359375 C 3.410156 -4.222656 3.503906 -4.054688 3.546875 -3.859375 C 3.597656 -3.671875 3.625 -3.421875 3.625 -3.109375 L 3.625 -0.640625 C 3.625 -0.492188 3.644531 -0.390625 3.6875 -0.328125 C 3.726562 -0.265625 3.800781 -0.234375 3.90625 -0.234375 C 3.976562 -0.234375 4.046875 -0.25 4.109375 -0.28125 C 4.171875 -0.3125 4.238281 -0.359375 4.3125 -0.421875 L 4.40625 -0.265625 C 4.25 -0.148438 4.113281 -0.0664062 4 -0.015625 C 3.894531 0.0351562 3.757812 0.0625 3.59375 0.0625 C 3.3125 0.0625 3.113281 -0.00390625 3 -0.140625 C 2.882812 -0.285156 2.828125 -0.476562 2.828125 -0.71875 C 2.648438 -0.425781 2.445312 -0.222656 2.21875 -0.109375 C 1.988281 0.00390625 1.726562 0.0625 1.4375 0.0625 Z M 1.828125 -0.296875 C 2.222656 -0.296875 2.554688 -0.519531 2.828125 -0.96875 L 2.828125 -2.703125 C 2.773438 -2.617188 2.703125 -2.550781 2.609375 -2.5 C 2.515625 -2.445312 2.367188 -2.375 2.171875 -2.28125 C 1.953125 -2.1875 1.769531 -2.097656 1.625 -2.015625 C 1.488281 -1.929688 1.367188 -1.8125 1.265625 -1.65625 C 1.171875 -1.507812 1.125 -1.320312 1.125 -1.09375 C 1.125 -0.832031 1.1875 -0.632812 1.3125 -0.5 C 1.445312 -0.363281 1.617188 -0.296875 1.828125 -0.296875 Z M 1.828125 -0.296875 "/></g></g></g><g fill="#66bfbf" fill-opacity="1"><g transform="translate(69.271144, 23.477331)"><g><path d="M 1.84375 -4.6875 C 2.050781 -4.6875 2.238281 -4.648438 2.40625 -4.578125 C 2.570312 -4.515625 2.707031 -4.441406 2.8125 -4.359375 C 2.875 -4.304688 2.925781 -4.28125 2.96875 -4.28125 C 3.070312 -4.28125 3.132812 -4.410156 3.15625 -4.671875 L 3.359375 -4.671875 C 3.335938 -4.390625 3.328125 -3.890625 3.328125 -3.171875 L 3.125 -3.171875 C 3.0625 -3.554688 2.9375 -3.875 2.75 -4.125 C 2.5625 -4.382812 2.285156 -4.515625 1.921875 -4.515625 C 1.710938 -4.515625 1.539062 -4.453125 1.40625 -4.328125 C 1.269531 -4.210938 1.203125 -4.050781 1.203125 -3.84375 C 1.203125 -3.632812 1.269531 -3.457031 1.40625 -3.3125 C 1.550781 -3.175781 1.78125 -3.007812 2.09375 -2.8125 C 2.144531 -2.78125 2.222656 -2.734375 2.328125 -2.671875 C 2.597656 -2.492188 2.816406 -2.335938 2.984375 -2.203125 C 3.148438 -2.066406 3.285156 -1.910156 3.390625 -1.734375 C 3.492188 -1.554688 3.546875 -1.347656 3.546875 -1.109375 C 3.546875 -0.722656 3.398438 -0.421875 3.109375 -0.203125 C 2.816406 0.015625 2.457031 0.125 2.03125 0.125 C 1.757812 0.125 1.523438 0.0820312 1.328125 0 C 1.203125 -0.0625 1.082031 -0.140625 0.96875 -0.234375 C 0.945312 -0.265625 0.921875 -0.28125 0.890625 -0.28125 C 0.847656 -0.28125 0.804688 -0.25 0.765625 -0.1875 C 0.734375 -0.125 0.710938 -0.0390625 0.703125 0.0625 L 0.5 0.0625 C 0.519531 -0.269531 0.53125 -0.859375 0.53125 -1.703125 L 0.734375 -1.703125 C 0.796875 -1.148438 0.910156 -0.734375 1.078125 -0.453125 C 1.253906 -0.179688 1.550781 -0.046875 1.96875 -0.046875 C 2.175781 -0.046875 2.359375 -0.113281 2.515625 -0.25 C 2.671875 -0.382812 2.75 -0.597656 2.75 -0.890625 C 2.75 -1.117188 2.671875 -1.3125 2.515625 -1.46875 C 2.359375 -1.632812 2.101562 -1.832031 1.75 -2.0625 C 1.457031 -2.238281 1.234375 -2.382812 1.078125 -2.5 C 0.921875 -2.625 0.789062 -2.769531 0.6875 -2.9375 C 0.582031 -3.113281 0.53125 -3.316406 0.53125 -3.546875 C 0.53125 -3.921875 0.65625 -4.203125 0.90625 -4.390625 C 1.15625 -4.585938 1.46875 -4.6875 1.84375 -4.6875 Z M 1.84375 -4.6875 "/></g></g></g><g fill="#66bfbf" fill-opacity="1"><g transform="translate(73.23131, 23.477331)"><g><path d="M 2.46875 -4.6875 C 2.863281 -4.6875 3.207031 -4.59375 3.5 -4.40625 C 3.78125 -4.21875 3.921875 -3.988281 3.921875 -3.71875 C 3.921875 -3.5625 3.875 -3.4375 3.78125 -3.34375 C 3.695312 -3.257812 3.585938 -3.21875 3.453125 -3.21875 C 3.316406 -3.21875 3.195312 -3.257812 3.09375 -3.34375 C 3 -3.425781 2.953125 -3.535156 2.953125 -3.671875 C 2.953125 -3.796875 2.988281 -3.898438 3.0625 -3.984375 C 3.132812 -4.066406 3.222656 -4.125 3.328125 -4.15625 C 3.273438 -4.257812 3.171875 -4.347656 3.015625 -4.421875 C 2.867188 -4.492188 2.707031 -4.53125 2.53125 -4.53125 C 2.3125 -4.53125 2.109375 -4.457031 1.921875 -4.3125 C 1.734375 -4.175781 1.578125 -3.945312 1.453125 -3.625 C 1.328125 -3.300781 1.265625 -2.878906 1.265625 -2.359375 C 1.265625 -1.628906 1.378906 -1.09375 1.609375 -0.75 C 1.847656 -0.414062 2.160156 -0.25 2.546875 -0.25 C 2.796875 -0.25 3.035156 -0.320312 3.265625 -0.46875 C 3.492188 -0.625 3.679688 -0.859375 3.828125 -1.171875 L 4 -1.109375 C 3.894531 -0.773438 3.703125 -0.484375 3.421875 -0.234375 C 3.148438 0.00390625 2.796875 0.125 2.359375 0.125 C 1.992188 0.125 1.660156 0.03125 1.359375 -0.15625 C 1.066406 -0.34375 0.832031 -0.613281 0.65625 -0.96875 C 0.488281 -1.332031 0.40625 -1.75 0.40625 -2.21875 C 0.40625 -2.695312 0.492188 -3.125 0.671875 -3.5 C 0.847656 -3.875 1.09375 -4.164062 1.40625 -4.375 C 1.71875 -4.582031 2.070312 -4.6875 2.46875 -4.6875 Z M 2.46875 -4.6875 "/></g></g></g><g fill="#66bfbf" fill-opacity="1"><g transform="translate(77.536994, 23.477331)"><g><path d="M 2.421875 -4.6875 C 3.023438 -4.6875 3.507812 -4.484375 3.875 -4.078125 C 4.25 -3.679688 4.4375 -3.082031 4.4375 -2.28125 C 4.4375 -1.46875 4.25 -0.863281 3.875 -0.46875 C 3.507812 -0.0703125 3.023438 0.125 2.421875 0.125 C 1.828125 0.125 1.34375 -0.0703125 0.96875 -0.46875 C 0.601562 -0.863281 0.421875 -1.46875 0.421875 -2.28125 C 0.421875 -3.082031 0.601562 -3.679688 0.96875 -4.078125 C 1.34375 -4.484375 1.828125 -4.6875 2.421875 -4.6875 Z M 2.421875 -4.515625 C 2.066406 -4.515625 1.785156 -4.332031 1.578125 -3.96875 C 1.378906 -3.601562 1.28125 -3.039062 1.28125 -2.28125 C 1.28125 -1.519531 1.378906 -0.957031 1.578125 -0.59375 C 1.785156 -0.226562 2.066406 -0.046875 2.421875 -0.046875 C 2.773438 -0.046875 3.054688 -0.226562 3.265625 -0.59375 C 3.472656 -0.957031 3.578125 -1.519531 3.578125 -2.28125 C 3.578125 -3.039062 3.472656 -3.601562 3.265625 -3.96875 C 3.054688 -4.332031 2.773438 -4.515625 2.421875 -4.515625 Z M 2.421875 -4.515625 "/></g></g></g><g fill="#66bfbf" fill-opacity="1"><g transform="translate(82.39196, 23.477331)"><g><path d="M 1.671875 -0.828125 C 1.671875 -0.578125 1.71875 -0.40625 1.8125 -0.3125 C 1.914062 -0.226562 2.09375 -0.1875 2.34375 -0.1875 L 2.34375 0 C 1.800781 -0.0195312 1.441406 -0.03125 1.265625 -0.03125 C 1.097656 -0.03125 0.738281 -0.0195312 0.1875 0 L 0.1875 -0.1875 C 0.4375 -0.1875 0.613281 -0.226562 0.71875 -0.3125 C 0.820312 -0.40625 0.875 -0.578125 0.875 -0.828125 L 0.875 -5.875 C 0.875 -6.15625 0.820312 -6.351562 0.71875 -6.46875 C 0.613281 -6.59375 0.4375 -6.65625 0.1875 -6.65625 L 0.1875 -6.84375 C 0.375 -6.832031 0.5625 -6.828125 0.75 -6.828125 C 1.113281 -6.828125 1.421875 -6.867188 1.671875 -6.953125 Z M 1.671875 -0.828125 "/></g></g></g><g fill="#66bfbf" fill-opacity="1"><g transform="translate(84.925754, 23.477331)"><g><path d="M 1.265625 -6.78125 C 1.421875 -6.78125 1.550781 -6.722656 1.65625 -6.609375 C 1.769531 -6.492188 1.828125 -6.359375 1.828125 -6.203125 C 1.828125 -6.054688 1.769531 -5.925781 1.65625 -5.8125 C 1.550781 -5.695312 1.421875 -5.640625 1.265625 -5.640625 C 1.109375 -5.640625 0.972656 -5.695312 0.859375 -5.8125 C 0.753906 -5.925781 0.703125 -6.054688 0.703125 -6.203125 C 0.703125 -6.359375 0.753906 -6.492188 0.859375 -6.609375 C 0.972656 -6.722656 1.109375 -6.78125 1.265625 -6.78125 Z M 1.734375 -0.828125 C 1.734375 -0.578125 1.78125 -0.40625 1.875 -0.3125 C 1.976562 -0.226562 2.15625 -0.1875 2.40625 -0.1875 L 2.40625 0 C 1.851562 -0.0195312 1.492188 -0.03125 1.328125 -0.03125 C 1.160156 -0.03125 0.800781 -0.0195312 0.25 0 L 0.25 -0.1875 C 0.5 -0.1875 0.675781 -0.226562 0.78125 -0.3125 C 0.882812 -0.40625 0.9375 -0.578125 0.9375 -0.828125 L 0.9375 -3.59375 C 0.9375 -3.863281 0.882812 -4.0625 0.78125 -4.1875 C 0.675781 -4.3125 0.5 -4.375 0.25 -4.375 L 0.25 -4.5625 C 0.445312 -4.539062 0.632812 -4.53125 0.8125 -4.53125 C 1.175781 -4.53125 1.484375 -4.570312 1.734375 -4.65625 Z M 1.734375 -0.828125 "/></g></g></g></svg>