<svg xmlns="http://www.w3.org/2000/svg" xmlns:xlink="http://www.w3.org/1999/xlink" width="300" zoomAndPan="magnify" viewBox="0 0 224.87999 187.499995" height="250" preserveAspectRatio="xMidYMid meet" version="1.0"><defs><clipPath id="d44bbe2e9b"><path d="M 2.6875 0.710938 L 222.257812 0.710938 L 222.257812 186.117188 L 2.6875 186.117188 Z M 2.6875 0.710938 " clip-rule="nonzero"/></clipPath></defs><g clip-path="url(#d44bbe2e9b)"><path fill="#5c715e" d="M 79.957031 170.902344 L 145.492188 170.902344 C 146.351562 170.902344 146.957031 171.507812 146.957031 172.382812 L 146.957031 179.804688 C 146.957031 180.660156 146.351562 181.285156 145.492188 181.285156 L 79.957031 181.285156 C 79.101562 181.285156 78.59375 180.679688 78.59375 179.804688 L 78.59375 172.382812 C 78.59375 171.507812 79.101562 170.902344 79.957031 170.902344 Z M 92.160156 150.234375 L 133.210938 150.234375 L 137.8125 166.050781 L 87.65625 166.050781 Z M 149.042969 39.164062 C 147.226562 39.417969 146.273438 42.105469 147.65625 43.390625 L 179.996094 75.726562 L 147.65625 107.964844 C 146.527344 108.84375 146.449219 110.652344 147.382812 111.609375 C 148.359375 112.5625 150.152344 112.464844 151.03125 111.433594 L 185.082031 77.363281 C 186.039062 76.507812 186.039062 74.871094 185.082031 73.992188 L 151.03125 39.945312 C 150.503906 39.417969 149.820312 39.164062 149.042969 39.164062 Z M 75.300781 39.164062 C 74.792969 39.242188 74.265625 39.59375 73.914062 39.945312 L 39.863281 73.992188 C 38.90625 74.871094 38.90625 76.507812 39.863281 77.363281 L 73.914062 111.433594 C 74.792969 112.464844 76.605469 112.5625 77.542969 111.609375 C 78.496094 110.652344 78.417969 108.84375 77.289062 107.964844 L 44.949219 75.726562 L 77.289062 43.390625 C 78.847656 42.007812 77.367188 38.988281 75.300781 39.164062 Z M 136.078125 31.199219 C 135.199219 31.292969 134.519531 31.722656 134.089844 32.425781 L 85.765625 116.011719 C 85.164062 117.140625 85.589844 118.777344 86.722656 119.378906 C 87.832031 120.082031 89.394531 119.652344 90.09375 118.523438 L 138.417969 34.839844 C 139.273438 33.28125 137.8125 31.042969 136.078125 31.199219 Z M 21.714844 20.660156 L 203.328125 20.660156 L 203.328125 130.269531 L 21.714844 130.269531 Z M 19.121094 15.828125 C 17.816406 15.90625 16.78125 17.035156 16.78125 18.242188 L 16.78125 132.703125 C 16.78125 133.988281 17.992188 135.121094 19.199219 135.121094 L 205.824219 135.121094 C 207.050781 135.121094 208.261719 133.988281 208.261719 132.703125 L 208.261719 18.242188 C 208.261719 17.035156 207.207031 15.90625 206 15.808594 C 205.921875 15.808594 205.824219 15.808594 205.824219 15.808594 L 19.121094 15.808594 Z M 19.121094 5.621094 L 205.824219 5.621094 C 212.316406 5.621094 217.421875 10.628906 217.421875 17.113281 L 217.421875 133.910156 C 217.421875 140.300781 212.316406 145.40625 205.824219 145.40625 L 19.121094 145.40625 C 12.628906 145.40625 7.523438 140.300781 7.523438 133.910156 L 7.523438 17.113281 C 7.523438 10.628906 12.628906 5.621094 19.121094 5.621094 Z M 19.121094 0.691406 C 10.039062 0.691406 2.6875 8.035156 2.6875 17.113281 L 2.6875 133.910156 C 2.6875 142.890625 10.039062 150.253906 19.121094 150.253906 L 87.152344 150.253906 L 82.648438 166.070312 L 79.957031 166.070312 C 76.507812 166.070312 73.664062 168.914062 73.664062 172.382812 L 73.664062 179.804688 C 73.664062 183.273438 76.507812 186.117188 79.957031 186.117188 L 145.492188 186.117188 C 148.945312 186.117188 151.808594 183.273438 151.808594 179.804688 L 151.808594 172.382812 C 151.808594 168.914062 148.945312 166.070312 145.492188 166.070312 L 142.824219 166.070312 L 138.320312 150.253906 L 205.824219 150.253906 C 214.90625 150.253906 222.257812 142.890625 222.257812 133.910156 L 222.257812 17.113281 C 222.257812 8.035156 214.90625 0.691406 205.824219 0.691406 L 19.121094 0.691406 " fill-opacity="1" fill-rule="nonzero"/></g></svg>